{"glyphs":{":":{"x_min":0,"x_max":291,"ha":291,"o":"m 97 514 q 104 516 119 516 q 145 516 174 506 q 203 496 223 481 q 243 465 245 450 q 245 421 220 397 q 195 373 156 355 q 131 344 102 344 q 68 344 40 359 q 12 374 5 402 q 3 415 3 419 q 3 443 17 462 q 31 482 53 495 q 75 509 97 514 z m 126 86 q 91 97 59 136 q 27 174 27 203 q 27 208 29 214 q 34 228 48 237 q 62 246 82 250 q 101 254 127 254 q 144 254 153 253 q 178 250 204 237 q 230 223 247 201 q 264 180 264 156 q 264 147 261 138 q 253 109 227 94 q 202 80 168 80 q 152 80 126 86 z"},"?":{"x_min":0,"x_max":624,"ha":624,"o":"m 84 503 l 15 678 q 81 715 163 742 q 246 769 363 769 q 482 769 531 714 q 579 659 586 597 q 588 583 588 572 q 588 535 568 502 q 547 470 486 447 q 425 424 310 424 l 319 195 l 109 186 l 172 484 l 215 484 q 309 484 375 495 q 440 507 442 540 q 442 599 365 599 q 325 599 269 584 q 214 568 164 546 q 114 524 84 503 z m 213 145 q 220 146 234 146 q 269 146 292 135 q 316 124 328 107 q 339 90 341 73 q 341 41 329 19 q 317 -3 294 -17 q 271 -31 235 -42 q 206 -50 182 -50 q 143 -50 116 -31 q 90 -13 84 20 q 84 73 117 106 q 150 139 213 145 z"},"'":{"x_min":0,"x_max":353,"ha":353,"o":"m 137 409 l 126 524 q 119 524 115 524 q 111 523 106 523 q 57 523 30 549 q 3 574 0 644 q 0 759 157 766 q 178 766 201 760 q 225 753 247 740 q 269 727 284 703 q 299 680 299 648 q 297 608 267 558 q 238 507 199 465 q 160 422 137 409 z"},"a":{"x_min":0,"x_max":615,"ha":615,"o":"m 6 39 l 113 12 l 135 121 l 322 116 l 375 -26 l 586 39 l 264 661 l 132 666 z m 196 440 l 281 226 l 152 207 z"},"L":{"x_min":0,"x_max":517,"ha":517,"o":"m 37 -97 l 30 663 l 267 670 l 177 21 l 469 63 l 469 -4 z"},"3":{"x_min":0,"x_max":643,"ha":643,"o":"m 1 501 l 22 710 l 559 757 l 349 427 q 396 421 433 414 q 470 407 511 387 q 552 368 581 329 q 610 289 610 228 q 608 146 558 96 q 508 46 443 25 q 377 3 328 1 q 234 1 154 44 q 73 87 22 213 l 83 245 q 97 222 110 199 q 124 177 145 154 q 166 131 198 115 q 229 98 274 91 q 315 91 344 113 q 374 136 389 168 q 404 201 404 228 q 404 248 388 271 q 373 294 348 310 q 322 326 295 326 q 255 326 221 291 l 172 348 l 314 543 z"},"J":{"x_min":0,"x_max":379,"ha":379,"o":"m 67 488 l 284 544 q 297 456 310 359 q 322 263 332 167 q 341 71 341 6 q 341 -50 332 -73 q 316 -115 284 -142 q 251 -169 192 -169 q 120 -169 5 -122 l 18 -63 q 49 -75 77 -82 q 104 -89 130 -89 q 178 -89 179 -55 q 181 -17 181 0 q 181 75 170 139 q 159 203 145 250 q 131 297 105 373 q 79 448 67 488 z m 78 733 q 106 742 138 742 q 172 742 200 730 q 228 718 244 701 q 261 684 266 670 q 266 639 235 606 q 203 574 158 562 q 120 552 96 552 q 30 552 8 617 q 3 630 3 648 q 3 681 24 699 q 45 718 78 733 z"},"V":{"x_min":0,"x_max":682,"ha":682,"o":"m -5 641 l 193 746 l 398 290 l 578 760 l 650 732 l 388 24 l 279 0 z"},"\"":{"x_min":0,"x_max":701,"ha":701,"o":"m 501 409 l 491 524 q 484 524 480 524 q 476 523 471 523 q 422 523 396 549 q 369 574 365 644 q 365 715 415 740 q 464 764 522 766 q 549 766 582 754 q 615 743 639 716 q 664 689 664 648 q 662 608 632 557 q 603 507 564 465 q 525 423 501 409 z m 137 409 l 126 524 q 119 524 115 524 q 111 523 106 523 q 57 523 30 549 q 3 574 0 644 q 0 759 157 766 q 178 766 201 760 q 225 753 247 740 q 269 727 284 703 q 299 680 299 648 q 297 608 267 558 q 238 507 199 465 q 160 422 137 409 z"},"7":{"x_min":0,"x_max":607,"ha":607,"o":"m 49 445 l -5 690 l 579 757 l 342 -3 l 248 24 l 397 529 z"},"S":{"x_min":0,"x_max":570,"ha":570,"o":"m 543 648 l 489 390 q 462 400 426 410 q 390 420 351 428 q 313 436 281 440 q 249 444 220 444 q 201 444 186 441 q 154 436 154 422 q 154 416 165 404 q 171 398 210 382 q 250 365 299 344 q 348 323 383 307 q 418 291 435 279 q 462 260 476 226 q 489 191 489 149 q 489 128 485 106 q 481 83 474 67 q 468 50 458 37 q 447 24 435 18 q 397 2 332 2 q 261 2 191 23 q 121 43 70 92 q 18 140 8 218 l 123 256 q 157 207 180 177 q 203 148 234 122 q 266 96 297 96 q 328 96 355 126 q 380 154 380 177 q 380 201 360 216 q 340 232 307 246 q 274 261 272 263 q 269 267 221 284 q 174 302 126 325 q 79 349 43 384 q 7 419 5 464 q 5 474 5 479 q 4 485 4 492 q 4 581 32 638 q 60 696 116 719 q 138 728 176 728 q 226 728 299 714 q 373 700 437 682 q 502 663 543 648 z"},"}":{"x_min":0,"x_max":380,"ha":380,"o":"m 67 -86 l 26 30 q 53 34 69 51 q 85 68 93 104 q 100 139 100 195 q 100 242 125 284 q 150 326 194 348 q 146 371 123 410 q 100 448 100 509 q 100 602 83 636 q 66 671 26 675 l 67 791 q 138 785 180 754 q 222 722 241 664 q 260 605 263 514 q 265 468 277 445 q 289 422 309 415 q 329 408 365 408 l 365 297 q 329 297 308 290 q 288 283 276 261 q 264 239 262 197 q 259 104 240 47 q 222 -10 180 -42 q 139 -74 67 -86 z"},"Z":{"x_min":0,"x_max":657,"ha":657,"o":"m 57 441 l 35 727 q 41 727 103 730 q 165 733 254 738 q 344 742 461 747 q 579 752 600 753 l 626 709 l 131 80 l 574 124 l 574 -1 l -6 -1 l -6 91 l 325 511 z"},"x":{"x_min":0,"x_max":602,"ha":602,"o":"m 531 121 l 460 36 l 288 253 l 86 4 l 20 83 l 218 341 l 2 613 l 165 753 l 323 479 l 496 704 l 574 607 l 385 373 z"},"v":{"x_min":0,"x_max":682,"ha":682,"o":"m -5 641 l 193 746 l 398 290 l 578 760 l 650 732 l 388 24 l 279 0 z"},"O":{"x_min":0,"x_max":715,"ha":715,"o":"m 28 346 q 22 383 22 425 q 22 491 41 552 q 61 612 106 657 q 152 702 227 719 q 265 727 298 727 q 369 727 433 696 q 498 665 548 605 q 597 546 622 467 q 637 416 637 369 q 637 301 611 238 q 584 175 546 131 q 508 87 473 69 q 394 29 312 29 q 264 29 220 45 q 175 62 137 99 q 98 136 70 197 q 42 258 28 346 z m 268 604 q 213 585 179 540 q 145 495 145 447 q 145 437 149 417 q 163 365 197 341 q 231 317 275 317 q 314 317 351 334 q 406 360 433 397 q 459 433 459 479 q 459 510 449 541 q 440 571 407 593 q 375 615 329 615 q 303 615 268 604 z"},"C":{"x_min":0,"x_max":593,"ha":593,"o":"m 547 588 q 500 608 428 623 q 355 637 288 637 q 218 637 165 619 q 112 601 86 561 q 62 525 49 469 q 35 413 35 352 q 35 305 44 259 q 53 213 72 176 q 90 139 119 115 q 227 26 419 26 q 487 26 565 37 l 539 138 q 488 135 455 135 q 333 135 265 161 q 197 187 197 244 q 197 298 254 329 q 311 360 421 360 q 483 360 543 352 z"},"W":{"x_min":0,"x_max":1000,"ha":1000,"o":"m 874 764 l 949 728 q 949 724 927 645 q 904 565 876 473 q 849 381 816 272 q 784 163 754 63 l 648 82 l 542 357 l 384 -4 l -1 589 l 191 737 l 409 308 l 552 708 l 727 377 z"},"A":{"x_min":0,"x_max":615,"ha":615,"o":"m 6 39 l 113 12 l 135 121 l 322 116 l 375 -26 l 586 39 l 264 661 l 132 666 z m 196 440 l 281 226 l 152 207 z"},"f":{"x_min":0,"x_max":498,"ha":498,"o":"m 206 7 l 141 -14 q 121 86 73 316 q 26 546 17 589 l 413 670 l 475 414 l 189 411 l 189 306 l 432 317 l 443 209 l 198 230 z"},"Q":{"x_min":0,"x_max":750,"ha":750,"o":"m 715 25 l 608 -58 l 544 52 q 519 23 489 10 q 398 -32 319 -32 q 269 -32 225 -16 q 145 13 91 93 q 37 173 19 303 q 14 341 14 379 q 14 448 33 512 q 53 576 101 626 q 148 676 229 696 q 271 707 310 707 q 371 707 424 685 q 477 663 521 624 q 564 584 596 534 q 628 484 647 430 q 662 389 662 335 q 662 286 649 237 q 637 187 614 144 z m 421 113 q 469 121 494 136 l 463 188 l 520 253 l 558 209 q 563 231 563 247 q 563 260 559 282 q 551 316 530 345 q 508 374 478 394 q 447 415 413 425 q 379 436 343 436 q 321 436 305 432 q 277 426 252 403 q 227 380 211 347 q 196 314 196 280 q 208 204 247 156 q 285 109 370 109 q 397 109 421 113 z"},"w":{"x_min":0,"x_max":1000,"ha":1000,"o":"m 874 764 l 949 728 q 949 724 927 645 q 904 565 876 473 q 849 381 816 272 q 784 163 754 63 l 648 82 l 542 357 l 384 -4 l -1 589 l 191 737 l 409 308 l 552 708 l 727 377 z"},"E":{"x_min":0,"x_max":577,"ha":577,"o":"m 540 12 l 164 26 l 8 563 l 452 666 l 501 464 l 182 381 l 203 272 l 519 340 l 532 220 l 216 207 l 237 108 l 550 116 z"},"s":{"x_min":0,"x_max":570,"ha":570,"o":"m 543 648 l 489 390 q 462 400 426 410 q 390 420 351 428 q 313 436 281 440 q 249 444 220 444 q 201 444 186 441 q 154 436 154 422 q 154 416 165 404 q 171 398 210 382 q 250 365 299 344 q 348 323 383 307 q 418 291 435 279 q 462 260 476 226 q 489 191 489 149 q 489 128 485 106 q 481 83 474 67 q 468 50 458 37 q 447 24 435 18 q 397 2 332 2 q 261 2 191 23 q 121 43 70 92 q 18 140 8 218 l 123 256 q 157 207 180 177 q 203 148 234 122 q 266 96 297 96 q 328 96 355 126 q 380 154 380 177 q 380 201 360 216 q 340 232 307 246 q 274 261 272 263 q 269 267 221 284 q 174 302 126 325 q 79 349 43 384 q 7 419 5 464 q 5 474 5 479 q 4 485 4 492 q 4 581 32 638 q 60 696 116 719 q 138 728 176 728 q 226 728 299 714 q 373 700 437 682 q 502 663 543 648 z"},"l":{"x_min":0,"x_max":517,"ha":517,"o":"m 37 -97 l 30 663 l 267 670 l 177 21 l 469 63 l 469 -4 z"},"8":{"x_min":0,"x_max":637,"ha":637,"o":"m 528 719 l 501 637 q 453 646 411 650 q 370 654 330 654 q 281 654 244 647 q 208 641 186 627 q 165 613 165 593 q 168 539 253 491 q 316 558 349 605 l 406 566 q 392 542 369 514 q 346 486 324 461 q 352 451 394 436 q 436 421 482 394 q 528 366 562 319 q 596 272 596 204 q 589 84 524 42 q 459 0 355 0 q 308 0 258 6 q 208 12 163 24 q 118 35 84 49 q 41 67 20 128 q 0 188 0 245 q 0 292 157 410 q 99 446 71 472 q 43 499 34 521 q 25 543 25 571 q 26 609 51 632 q 75 655 137 681 q 201 708 253 719 q 305 730 355 730 q 388 730 445 725 q 502 720 528 719 z m 224 356 q 224 347 206 332 q 188 317 153 292 q 119 267 101 251 q 83 236 83 225 q 89 160 166 115 q 242 71 323 71 q 392 74 420 86 q 449 98 456 122 q 456 134 433 161 q 410 188 379 216 q 349 244 310 280 q 270 315 224 356 z"},"\\":{"x_min":0,"x_max":633,"ha":633,"o":"m -80 930 l 87 1060 l 603 -48 l 517 -87 z"},"e":{"x_min":0,"x_max":577,"ha":577,"o":"m 540 12 l 164 26 l 8 563 l 452 666 l 501 464 l 182 381 l 203 272 l 519 340 l 532 220 l 216 207 l 237 108 l 550 116 z"},"b":{"x_min":0,"x_max":631,"ha":631,"o":"m 47 18 l 307 11 q 546 39 572 185 q 576 202 576 222 q 576 271 545 302 q 514 333 471 349 q 429 365 349 388 q 379 438 379 480 q 379 525 346 565 q 300 608 248 625 q 197 642 138 642 q 91 642 11 632 z m 131 460 q 166 464 201 464 q 278 464 294 434 q 294 406 132 396 z m 127 318 q 199 314 259 307 q 318 299 365 283 q 411 266 440 237 q 470 207 473 161 q 473 139 438 122 q 402 105 353 103 l 121 109 z"},"m":{"x_min":0,"x_max":1041,"ha":1041,"o":"m 83 -2 l 7 37 q 7 41 33 118 q 59 196 91 295 q 124 393 164 510 q 203 628 232 714 l 340 691 l 440 403 l 615 770 l 992 146 l 787 0 l 578 449 l 416 43 l 248 390 z"},",":{"x_min":0,"x_max":279,"ha":279,"o":"m 118 -121 l 108 -18 q 70 -18 47 -10 q 24 -1 11 21 q -1 44 -3 87 q -3 132 21 156 q 46 179 77 187 q 107 194 136 195 q 177 195 220 169 q 262 144 262 91 q 260 55 234 10 q 207 -35 173 -72 q 139 -109 118 -121 z"},"n":{"x_min":0,"x_max":569,"ha":569,"o":"m 152 10 l 32 10 l 16 733 l 148 746 l 398 389 l 415 721 l 542 733 l 509 2 l 378 -1 l 168 276 z"},"h":{"x_min":0,"x_max":517,"ha":517,"o":"m 469 21 l 349 0 l 336 150 l 163 167 l 146 3 l 21 9 l 6 663 l 211 639 l 177 285 l 330 224 l 290 634 l 493 648 z"},"z":{"x_min":0,"x_max":657,"ha":657,"o":"m 57 441 l 35 727 q 41 727 103 730 q 165 733 254 738 q 344 742 461 747 q 579 752 600 753 l 626 709 l 131 80 l 574 124 l 574 -1 l -6 -1 l -6 91 l 325 511 z"},"B":{"x_min":0,"x_max":593,"ha":593,"o":"m 47 18 l 307 11 q 546 39 572 185 q 576 202 576 222 q 576 271 545 302 q 514 333 471 349 q 429 365 349 388 q 379 438 379 480 q 379 525 346 565 q 300 608 248 625 q 197 642 138 642 q 91 642 11 632 z m 131 460 q 166 464 201 464 q 278 464 294 434 q 294 406 132 396 z m 127 318 q 199 314 259 307 q 318 299 365 283 q 411 266 440 237 q 470 207 473 161 q 473 139 438 122 q 402 105 353 103 l 121 109 z"},"K":{"x_min":0,"x_max":694,"ha":694,"o":"m 210 295 l 192 -19 l 70 -12 l -4 749 l 235 753 l 219 468 l 510 738 l 643 531 l 283 390 l 661 198 l 554 2 z"},"R":{"x_min":0,"x_max":522,"ha":522,"o":"m 75 8 l 3 743 q 16 744 43 744 q 128 744 208 724 q 289 703 352 663 q 416 622 453 563 q 490 504 490 429 q 490 387 478 351 q 465 314 433 287 q 400 260 345 249 l 498 57 l 451 4 l 182 228 l 178 -2 z m 194 473 l 188 324 q 204 322 227 320 q 250 317 277 315 q 303 313 316 313 q 357 313 382 324 q 406 334 411 361 q 411 418 344 444 q 276 470 194 473 z"},"T":{"x_min":0,"x_max":558,"ha":558,"o":"m 458 1 l 351 -27 l 179 574 l 33 544 l 2 626 l 506 749 l 532 648 l 379 616 z"},"P":{"x_min":0,"x_max":577,"ha":577,"o":"m 304 13 l 176 -20 l 3 696 q 121 741 233 741 q 327 741 411 706 q 472 680 503 624 q 534 568 534 484 q 534 447 528 408 q 516 322 452 277 q 387 231 279 209 z m 258 319 q 292 330 320 339 q 347 349 372 362 q 397 375 405 390 q 414 404 414 418 q 414 447 370 457 q 345 463 315 463 q 292 463 238 457 z"},"t":{"x_min":0,"x_max":558,"ha":558,"o":"m 458 1 l 351 -27 l 179 574 l 33 544 l 2 626 l 506 749 l 532 648 l 379 616 z"},"M":{"x_min":0,"x_max":1041,"ha":1041,"o":"m 83 -2 l 7 37 q 7 41 33 118 q 59 196 91 295 q 124 393 164 510 q 203 628 232 714 l 340 691 l 440 403 l 615 770 l 992 146 l 787 0 l 578 449 l 416 43 l 248 390 z"},"g":{"x_min":0,"x_max":623,"ha":623,"o":"m 377 201 l 332 64 q 271 70 226 89 q 180 107 152 135 q 124 164 110 199 q 96 235 96 276 q 96 294 99 316 q 104 351 135 372 q 167 393 214 401 q 262 409 323 409 q 369 409 415 406 q 460 402 534 394 q 553 469 562 501 q 570 534 582 576 q 593 619 594 619 q 468 640 378 640 q 319 640 277 633 q 234 625 203 612 q 172 600 146 584 q 121 569 89 549 q 51 526 27 462 q 2 398 2 323 q 2 261 20 204 q 39 147 76 103 q 109 67 151 44 q 192 21 240 8 q 287 -5 334 -10 q 381 -15 433 -15 q 484 -15 544 -11 l 584 229 l 248 303 l 217 216 z"},"j":{"x_min":0,"x_max":379,"ha":379,"o":"m 67 488 l 284 544 q 297 456 310 359 q 322 263 332 167 q 341 71 341 6 q 341 -50 332 -73 q 316 -115 284 -142 q 251 -169 192 -169 q 120 -169 5 -122 l 18 -63 q 49 -75 77 -82 q 104 -89 130 -89 q 178 -89 179 -55 q 181 -17 181 0 q 181 75 170 139 q 159 203 145 250 q 131 297 105 373 q 79 448 67 488 z m 78 733 q 106 742 138 742 q 172 742 200 730 q 228 718 244 701 q 261 684 266 670 q 266 639 235 606 q 203 574 158 562 q 120 552 96 552 q 30 552 8 617 q 3 630 3 648 q 3 681 24 699 q 45 718 78 733 z"},"i":{"x_min":0,"x_max":266,"ha":266,"o":"m 15 410 l 39 9 l 134 -8 l 177 410 z m 99 627 q 61 627 33 602 q 6 576 6 540 q 6 514 13 495 q 21 477 41 465 q 62 453 99 453 q 138 453 165 479 q 192 504 192 540 q 192 564 179 584 q 167 604 145 615 q 124 627 99 627 z"},"y":{"x_min":0,"x_max":619,"ha":619,"o":"m 590 667 l 188 -52 l 65 39 l 219 259 l 3 527 l 131 716 l 342 450 l 530 729 z"},".":{"x_min":0,"x_max":297,"ha":297,"o":"m 119 212 q 129 215 143 215 q 163 215 187 209 q 210 203 230 192 q 250 182 262 169 q 275 156 277 144 q 277 114 251 88 q 225 62 182 42 q 158 31 123 31 q 86 31 56 46 q 27 62 20 93 q 18 99 18 112 q 18 148 49 176 q 80 203 119 212 z"},"p":{"x_min":0,"x_max":577,"ha":577,"o":"m 304 13 l 176 -20 l 3 696 q 121 741 233 741 q 327 741 411 706 q 472 680 503 624 q 534 568 534 484 q 534 447 528 408 q 516 322 452 277 q 387 231 279 209 z m 258 319 q 292 330 320 339 q 347 349 372 362 q 397 375 405 390 q 414 404 414 418 q 414 447 370 457 q 345 463 315 463 q 292 463 238 457 z"},"X":{"x_min":0,"x_max":602,"ha":602,"o":"m 531 121 l 460 36 l 288 253 l 86 4 l 20 83 l 218 341 l 2 613 l 165 753 l 323 479 l 496 704 l 574 607 l 385 373 z"},"Y":{"x_min":0,"x_max":619,"ha":619,"o":"m 590 667 l 188 -52 l 65 39 l 219 259 l 3 527 l 131 716 l 342 450 l 530 729 z"},"c":{"x_min":0,"x_max":593,"ha":593,"o":"m 547 588 q 500 608 428 623 q 355 637 288 637 q 218 637 165 619 q 112 601 86 561 q 62 525 49 469 q 35 413 35 352 q 35 305 44 259 q 53 213 72 176 q 90 139 119 115 q 227 26 419 26 q 487 26 565 37 l 539 138 q 488 135 455 135 q 333 135 265 161 q 197 187 197 244 q 197 298 254 329 q 311 360 421 360 q 483 360 543 352 z"},"!":{"x_min":0,"x_max":273,"ha":273,"o":"m 88 122 l -11 719 l 235 751 l 211 158 z m 161 74 q 199 74 223 58 q 247 42 252 17 q 254 9 254 4 q 254 -23 232 -50 q 209 -76 164 -87 q 149 -90 136 -90 q 102 -90 85 -73 q 67 -55 57 -32 q 53 -21 53 -14 q 53 16 83 43 q 112 70 161 74 z"},"/":{"x_min":0,"x_max":660,"ha":660,"o":"m -24 -62 l 485 909 l 629 786 l 51 -101 z"},"6":{"x_min":0,"x_max":537,"ha":537,"o":"m 223 735 l 349 615 q 297 589 246 545 q 194 501 158 454 q 123 408 114 373 l 118 371 q 148 401 180 414 q 212 426 251 426 q 274 426 344 417 q 417 407 456 354 q 495 300 503 198 q 503 140 464 96 q 426 53 377 28 q 328 4 301 0 q 296 0 285 -2 q 274 -3 259 -4 q 243 -6 225 -6 q 66 -6 22 113 q 5 162 5 222 q 5 262 11 302 q 18 341 27 378 q 37 416 39 424 q 50 478 95 561 q 140 645 223 735 z m 168 320 q 146 312 127 285 q 109 257 109 237 q 110 230 111 219 q 113 208 119 199 q 125 190 137 184 q 150 178 173 177 q 229 177 265 200 q 301 223 301 270 q 297 328 222 328 q 191 328 168 320 z"},"r":{"x_min":0,"x_max":522,"ha":522,"o":"m 75 8 l 3 743 q 16 744 43 744 q 128 744 208 724 q 289 703 352 663 q 416 622 453 563 q 490 504 490 429 q 490 387 478 351 q 465 314 433 287 q 400 260 345 249 l 498 57 l 451 4 l 182 228 l 178 -2 z m 194 473 l 188 324 q 204 322 227 320 q 250 317 277 315 q 303 313 316 313 q 357 313 382 324 q 406 334 411 361 q 411 418 344 444 q 276 470 194 473 z"},"2":{"x_min":0,"x_max":479,"ha":479,"o":"m 65 566 l 6 654 q 6 657 23 671 q 40 685 71 702 q 102 719 145 730 q 188 742 237 742 q 304 739 354 707 q 403 674 429 622 q 454 569 454 504 q 453 461 422 411 q 392 360 350 314 q 308 268 272 237 q 237 206 230 199 q 240 199 334 223 q 429 247 435 247 l 450 20 l 21 -5 l 10 74 q 72 130 120 179 q 167 228 209 298 q 251 369 259 445 q 263 479 263 512 q 263 579 241 604 q 219 628 171 628 q 133 624 110 607 q 86 590 65 566 z"},"{":{"x_min":0,"x_max":380,"ha":380,"o":"m 313 791 l 354 675 q 314 669 297 632 q 280 594 280 510 q 280 465 255 424 q 230 382 189 363 q 235 342 257 302 q 280 261 280 196 q 280 134 288 98 q 296 62 312 47 q 328 33 354 30 l 313 -86 q 260 -82 223 -62 q 187 -43 164 -9 q 141 26 130 76 q 120 125 117 196 q 115 241 103 264 q 91 287 71 294 q 51 302 15 302 l 15 413 q 51 413 72 420 q 93 427 105 448 q 117 470 118 513 q 121 581 131 629 q 142 677 164 709 q 186 742 223 762 q 259 783 313 791 z"},"9":{"x_min":0,"x_max":577,"ha":577,"o":"m 127 -46 l 39 118 q 85 126 137 144 q 188 162 234 186 q 280 210 314 237 q 348 263 363 286 l 360 290 q 316 268 271 268 q 252 268 232 272 q 212 276 199 281 q 187 286 156 301 q 125 315 112 321 q 10 372 10 492 q 10 538 25 600 q 35 641 63 667 q 92 694 127 709 q 163 724 200 730 q 237 736 268 736 q 285 736 299 734 q 354 723 401 707 q 449 690 497 645 q 545 599 547 522 q 547 472 531 420 q 515 368 494 327 q 474 287 451 252 q 429 218 422 208 q 393 156 318 87 q 244 18 127 -46 z m 326 359 q 352 359 382 383 q 412 407 415 425 q 421 450 421 455 q 421 488 370 508 q 335 522 300 522 q 266 522 241 506 q 216 490 207 456 q 205 450 205 438 q 205 400 244 381 q 283 361 326 359 z"}," ":{"x_min":0,"x_max":292,"ha":292,"o":""},"I":{"x_min":0,"x_max":246,"ha":246,"o":"m 15 410 l 39 9 l 134 -8 l 177 410 z m 99 627 q 61 627 33 602 q 6 576 6 540 q 6 514 13 495 q 21 477 41 465 q 62 453 99 453 q 138 453 165 479 q 192 504 192 540 q 192 564 179 584 q 167 604 145 615 q 124 627 99 627 z"},"H":{"x_min":0,"x_max":517,"ha":517,"o":"m 469 21 l 349 0 l 336 150 l 163 167 l 146 3 l 21 9 l 6 663 l 211 639 l 177 285 l 330 224 l 290 634 l 493 648 z"},"4":{"x_min":0,"x_max":572,"ha":572,"o":"m 283 353 l 283 577 l 104 372 z m 283 -14 l 293 222 l 8 193 l -1 366 l 312 708 l 436 724 l 454 331 l 545 319 l 542 225 l 459 225 l 468 1 z"},"D":{"x_min":0,"x_max":649,"ha":649,"o":"m 137 -16 q 174 -13 209 -5 q 244 4 276 16 q 309 28 343 44 q 376 60 409 78 q 467 110 507 154 q 547 198 566 247 q 585 296 585 346 q 585 411 556 468 q 533 513 494 546 q 454 578 404 598 q 353 618 296 627 q 239 636 173 636 q 93 636 6 622 z m 215 84 l 179 395 q 255 411 314 411 q 452 411 491 327 q 497 313 497 300 q 497 258 448 214 q 399 170 333 136 q 268 102 215 84 z"},"0":{"x_min":0,"x_max":737,"ha":737,"o":"m 106 508 q 137 551 179 590 q 222 629 272 652 q 322 676 376 676 q 441 676 506 637 q 555 607 588 565 q 622 522 640 470 q 657 418 657 361 q 657 316 646 272 q 635 228 614 184 q 580 118 525 76 q 470 34 409 15 q 347 -4 294 -4 q 258 -4 232 4 q 176 21 125 56 q 75 90 44 143 q 12 196 12 262 q 12 374 106 508 z m 455 526 q 417 544 375 544 q 347 544 321 535 q 295 527 275 511 q 254 496 242 475 q 222 441 222 406 q 222 362 253 328 q 284 293 328 277 q 367 263 405 263 q 495 265 541 356 q 549 372 549 396 q 549 433 525 469 q 501 505 455 526 z"},"F":{"x_min":0,"x_max":498,"ha":498,"o":"m 206 7 l 141 -14 q 121 86 73 316 q 26 546 17 589 l 413 670 l 475 414 l 189 411 l 189 306 l 432 317 l 443 209 l 198 230 z"},"k":{"x_min":0,"x_max":694,"ha":694,"o":"m 210 295 l 192 -19 l 70 -12 l -4 749 l 235 753 l 219 468 l 510 738 l 643 531 l 283 390 l 661 198 l 554 2 z"},"u":{"x_min":0,"x_max":602,"ha":602,"o":"m 419 694 l 529 685 q 536 610 543 518 q 550 425 550 356 q 550 177 506 119 q 470 70 398 36 q 326 2 253 2 q 162 2 113 59 q 70 111 47 228 q 25 345 18 461 q 12 577 8 735 l 246 717 q 247 641 249 557 q 251 473 256 382 q 262 290 269 231 q 276 171 288 153 q 304 128 331 128 q 356 128 383 152 q 410 175 429 219 q 448 265 448 389 q 448 443 446 492 q 443 541 438 587 q 434 634 428 664 q 423 694 419 694 z"},"U":{"x_min":0,"x_max":602,"ha":602,"o":"m 419 694 l 529 685 q 536 610 543 518 q 550 425 550 356 q 550 177 506 119 q 470 70 398 36 q 326 2 253 2 q 162 2 113 59 q 70 111 47 228 q 25 345 18 461 q 12 577 8 735 l 246 717 q 247 641 249 557 q 251 473 256 382 q 262 290 269 231 q 276 171 288 153 q 304 128 331 128 q 356 128 383 152 q 410 175 429 219 q 448 265 448 389 q 448 443 446 492 q 443 541 438 587 q 434 634 428 664 q 423 694 419 694 z"},"o":{"x_min":0,"x_max":715,"ha":715,"o":"m 28 346 q 22 383 22 425 q 22 491 41 552 q 61 612 106 657 q 152 702 227 719 q 265 727 298 727 q 369 727 433 696 q 498 665 548 605 q 597 546 622 467 q 637 416 637 369 q 637 301 611 238 q 584 175 546 131 q 508 87 473 69 q 394 29 312 29 q 264 29 220 45 q 175 62 137 99 q 98 136 70 197 q 42 258 28 346 z m 268 604 q 213 585 179 540 q 145 495 145 447 q 145 437 149 417 q 163 365 197 341 q 231 317 275 317 q 314 317 351 334 q 406 360 433 397 q 459 433 459 479 q 459 510 449 541 q 440 571 407 593 q 375 615 329 615 q 303 615 268 604 z"},"N":{"x_min":0,"x_max":569,"ha":569,"o":"m 152 10 l 32 10 l 16 733 l 148 746 l 398 389 l 415 721 l 542 733 l 509 2 l 378 -1 l 168 276 z"},"G":{"x_min":0,"x_max":623,"ha":623,"o":"m 377 201 l 332 64 q 271 70 226 89 q 180 107 152 135 q 124 164 110 199 q 96 235 96 276 q 96 294 99 316 q 104 351 135 372 q 167 393 214 401 q 262 409 323 409 q 369 409 415 406 q 460 402 534 394 q 553 469 562 501 q 570 534 582 576 q 593 619 594 619 q 468 640 378 640 q 319 640 277 633 q 234 625 203 612 q 172 600 146 584 q 121 569 89 549 q 51 526 27 462 q 2 398 2 323 q 2 261 20 204 q 39 147 76 103 q 109 67 151 44 q 192 21 240 8 q 287 -5 334 -10 q 381 -15 433 -15 q 484 -15 544 -11 l 584 229 l 248 303 l 217 216 z"},"q":{"x_min":0,"x_max":750,"ha":750,"o":"m 715 25 l 608 -58 l 544 52 q 519 23 489 10 q 398 -32 319 -32 q 269 -32 225 -16 q 145 13 91 93 q 37 173 19 303 q 14 341 14 379 q 14 448 33 512 q 53 576 101 626 q 148 676 229 696 q 271 707 310 707 q 371 707 424 685 q 477 663 521 624 q 564 584 596 534 q 628 484 647 430 q 662 389 662 335 q 662 286 649 237 q 637 187 614 144 z m 421 113 q 469 121 494 136 l 463 188 l 520 253 l 558 209 q 563 231 563 247 q 563 260 559 282 q 551 316 530 345 q 508 374 478 394 q 447 415 413 425 q 379 436 343 436 q 321 436 305 432 q 277 426 252 403 q 227 380 211 347 q 196 314 196 280 q 208 204 247 156 q 285 109 370 109 q 397 109 421 113 z"},"d":{"x_min":0,"x_max":649,"ha":649,"o":"m 137 -16 q 174 -13 209 -5 q 244 4 276 16 q 309 28 343 44 q 376 60 409 78 q 467 110 507 154 q 547 198 566 247 q 585 296 585 346 q 585 411 556 468 q 533 513 494 546 q 454 578 404 598 q 353 618 296 627 q 239 636 173 636 q 93 636 6 622 z m 215 84 l 179 395 q 255 411 314 411 q 452 411 491 327 q 497 313 497 300 q 497 258 448 214 q 399 170 333 136 q 268 102 215 84 z"},"1":{"x_min":0,"x_max":348,"ha":348,"o":"m 53 509 l 0 594 l 159 760 l 332 739 l 226 1 l 127 -1 l 131 580 z"},"5":{"x_min":0,"x_max":559,"ha":559,"o":"m 3 656 l 419 728 l 440 486 l 127 477 l 143 377 q 237 388 295 388 q 396 388 460 358 q 524 327 527 250 q 527 134 460 73 q 393 13 245 13 q 184 13 127 21 l 133 105 q 174 105 205 111 q 236 117 256 138 q 276 158 276 198 q 276 237 265 261 q 254 285 229 296 q 204 308 159 308 q 124 308 68 300 z"}}}
